<svg width="16" height="16" viewBox="0 0 16 16" fill="none" xmlns="http://www.w3.org/2000/svg">
<path d="M11.2239 0H4.77612C2.14925 0 0 2.14925 0 4.77612V11.2239C0 13.8507 2.14925 16 4.77612 16H11.2239C13.8507 16 16 13.8507 16 11.2239V4.77612C15.9204 2.14925 13.7711 0 11.2239 0ZM14.3284 11.2239C14.3284 12.9751 12.8955 14.3284 11.2239 14.3284H4.77612C3.02488 14.3284 1.67164 12.8955 1.67164 11.2239V4.77612C1.67164 3.02488 3.10448 1.67164 4.77612 1.67164H11.2239C12.9751 1.67164 14.3284 3.10448 14.3284 4.77612V11.2239Z" fill="#8E24AA"/>
<path d="M7.9602 3.90039C5.65174 3.90039 3.82089 5.73124 3.82089 8.03969C3.82089 10.3482 5.65174 12.179 7.9602 12.179C10.2687 12.179 12.0995 10.3482 12.0995 8.03969C12.0995 5.73124 10.2687 3.90039 7.9602 3.90039ZM7.9602 10.5074C6.60696 10.5074 5.41293 9.39293 5.41293 7.96009C5.41293 6.60686 6.52736 5.41283 7.9602 5.41283C9.39303 5.41283 10.5075 6.52726 10.5075 7.96009C10.5075 9.39293 9.39303 10.5074 7.9602 10.5074Z" fill="#8E24AA"/>
<path d="M12.0995 4.85576C12.6271 4.85576 13.0547 4.42809 13.0547 3.90054C13.0547 3.37298 12.6271 2.94531 12.0995 2.94531C11.572 2.94531 11.1443 3.37298 11.1443 3.90054C11.1443 4.42809 11.572 4.85576 12.0995 4.85576Z" fill="#8E24AA"/>
</svg>
