<?xml version="1.0" standalone="no"?>
<!DOCTYPE svg PUBLIC "-//W3C//DTD SVG 20010904//EN"
 "http://www.w3.org/TR/2001/REC-SVG-20010904/DTD/svg10.dtd">
<svg version="1.0" xmlns="http://www.w3.org/2000/svg"
 width="343.000000pt" height="343.000000pt" viewBox="0 0 343.000000 343.000000"
 preserveAspectRatio="xMidYMid meet">
<metadata>
Created by potrace 1.11, written by Peter Selinger 2001-2013
</metadata>
<g transform="translate(0.000000,343.000000) scale(0.100000,-0.100000)"
fill="#000000" stroke="none">
<path d="M2995 3227 c-141 -47 -351 -162 -399 -219 -57 -66 -95 -158 -110
-263 -4 -22 -11 -62 -16 -90 -6 -27 -12 -59 -14 -70 -3 -11 -9 -40 -15 -65 -5
-25 -12 -58 -15 -75 -3 -16 -10 -45 -15 -62 -5 -18 -7 -33 -3 -33 14 0 -16
-21 -37 -25 -22 -4 -22 -4 -15 98 10 145 11 182 2 267 -28 263 -164 435 -380
480 -56 11 -288 15 -358 5 -19 -2 -55 -7 -80 -10 -152 -19 -367 -94 -485 -170
-233 -148 -465 -451 -503 -655 -4 -19 -6 -89 -6 -155 2 -142 21 -231 72 -328
19 -37 33 -69 31 -71 -2 -2 -29 -11 -59 -21 -116 -38 -274 -135 -368 -226
-100 -97 -175 -236 -206 -379 -20 -92 -14 -282 13 -385 70 -263 266 -465 535
-551 106 -34 153 -39 321 -38 122 1 157 5 270 33 361 88 622 309 801 678 35
73 64 135 64 138 0 3 9 24 19 48 69 155 139 370 167 515 19 99 44 156 75 173
13 6 19 7 15 1 -5 -9 -19 -184 -19 -252 -1 -145 40 -315 94 -388 57 -78 207
-160 324 -178 245 -38 504 90 696 342 l39 51 0 354 -1 354 -26 -30 c-14 -16
-58 -66 -98 -110 -40 -44 -87 -97 -104 -117 -71 -82 -128 -138 -140 -138 -7 0
-10 3 -8 8 3 4 8 41 11 82 9 100 17 180 21 199 2 9 6 45 10 81 4 36 8 67 10
70 2 3 6 33 10 65 4 33 10 76 15 95 5 19 11 53 15 75 3 23 8 52 10 65 3 14 8
41 11 60 3 19 8 38 10 41 2 3 6 21 9 40 3 19 8 42 11 51 3 9 7 27 9 39 9 46
56 175 80 219 86 155 92 221 30 310 -58 83 -189 111 -320 67z m-1389 -619 c-4
-40 -11 -98 -16 -128 -5 -30 -11 -73 -14 -95 -3 -22 -8 -59 -11 -81 l-7 -42
-35 24 c-41 28 -90 38 -143 31 l-38 -5 20 72 c20 73 61 152 101 196 39 43 114
94 146 99 2 1 1 -32 -3 -71z m-162 -887 c-73 -267 -173 -425 -308 -487 -86
-39 -182 -40 -208 -1 -3 6 -4 25 -2 44 5 43 40 75 119 113 94 45 144 108 154
196 l6 55 55 23 c64 25 136 73 177 116 15 16 29 29 30 30 1 0 -9 -40 -23 -89z"/>
</g>
</svg>
