<svg width="16" height="10" viewBox="0 0 16 10" fill="none" xmlns="http://www.w3.org/2000/svg">
<path d="M15.6704 1.54389C15.4859 0.940262 14.9456 0.464327 14.2602 0.301812C13.0082 0 7.99997 0 7.99997 0C7.99997 0 2.99175 0 1.7397 0.290204C1.06754 0.452719 0.514001 0.940262 0.329488 1.54389C0 2.64666 0 4.93347 0 4.93347C0 4.93347 0 7.23189 0.329488 8.32306C0.514001 8.92668 1.05436 9.40262 1.7397 9.56513C3.00493 9.86694 7.99997 9.86694 7.99997 9.86694C7.99997 9.86694 13.0082 9.86694 14.2602 9.57674C14.9456 9.41422 15.4859 8.93829 15.6704 8.33467C15.9999 7.23189 15.9999 4.94508 15.9999 4.94508C15.9999 4.94508 16.0131 2.64666 15.6704 1.54389ZM6.40524 7.04616V2.82078L10.57 4.93347L6.40524 7.04616Z" fill="#C4302B"/>
</svg>
